/* XPM */
static char * green_xpm[] = {
"16 16 216 2",
"  	c #6EDB64",
". 	c #60DD52",
"+ 	c #75D16D",
"@ 	c #77D96E",
"# 	c #70D967",
"$ 	c #65DB59",
"% 	c #72D36B",
"& 	c #7AD473",
"* 	c #6DD963",
"= 	c #5CDB4D",
"- 	c #62D755",
"; 	c #6CDD62",
"> 	c #68DA5D",
", 	c #68DC5C",
"' 	c #63DB56",
") 	c #67DE5C",
"! 	c #6FD865",
"~ 	c #7CD875",
"{ 	c #7AD472",
"] 	c #7ED279",
"^ 	c #5DDC4E",
"/ 	c #63DF56",
"( 	c #6BD960",
"_ 	c #6BD661",
": 	c #66D95A",
"< 	c #64D859",
"[ 	c #60DC53",
"} 	c #72D36A",
"| 	c #73D66A",
"1 	c #6ADA60",
"2 	c #6BD662",
"3 	c #6DD764",
"4 	c #73D46B",
"5 	c #69DA5E",
"6 	c #78D870",
"7 	c #66DC5A",
"8 	c #71D468",
"9 	c #73D56C",
"0 	c #6AD860",
"a 	c #6DD464",
"b 	c #62DC56",
"c 	c #59DF4A",
"d 	c #62DA55",
"e 	c #7ED079",
"f 	c #7BD974",
"g 	c #7AD374",
"h 	c #6DDB62",
"i 	c #77D070",
"j 	c #6ED765",
"k 	c #7ED577",
"l 	c #71DC68",
"m 	c #7DD476",
"n 	c #67DA5B",
"o 	c #70D366",
"p 	c #73D66B",
"q 	c #6FD166",
"r 	c #61DB54",
"s 	c #79D473",
"t 	c #63DD56",
"u 	c #69DD5D",
"v 	c #72D56A",
"w 	c #7DD377",
"x 	c #77D770",
"y 	c #6FDA65",
"z 	c #63D957",
"A 	c #64DC57",
"B 	c #6AD760",
"C 	c #77D170",
"D 	c #6ADC5F",
"E 	c #61DB53",
"F 	c #60DF51",
"G 	c #61DC54",
"H 	c #62DD55",
"I 	c #6ED665",
"J 	c #79D671",
"K 	c #6CD763",
"L 	c #7AD874",
"M 	c #74D76B",
"N 	c #70D966",
"O 	c #67D85B",
"P 	c #67DB5C",
"Q 	c #6FDB66",
"R 	c #5DDE4E",
"S 	c #61E053",
"T 	c #6DD564",
"U 	c #7AD273",
"V 	c #76CC6E",
"W 	c #6ED865",
"X 	c #5DDF4E",
"Y 	c #67DA5C",
"Z 	c #64D758",
"` 	c #76D96D",
" .	c #70D667",
"..	c #7ED578",
"+.	c #6CD663",
"@.	c #6BDC60",
"#.	c #67DB5A",
"$.	c #6CD563",
"%.	c #6ED864",
"&.	c #79D672",
"*.	c #7ED277",
"=.	c #7DD676",
"-.	c #61DF53",
";.	c #6CDB62",
">.	c #7CD175",
",.	c #75D16E",
"'.	c #7CD376",
").	c #6DD964",
"!.	c #63D658",
"~.	c #5AE04B",
"{.	c #68D95D",
"].	c #6BD461",
"^.	c #6CD961",
"/.	c #78D070",
"(.	c #68DC5D",
"_.	c #6AD460",
":.	c #6ED564",
"<.	c #71D569",
"[.	c #75D96D",
"}.	c #7ED377",
"|.	c #7FCE79",
"1.	c #78D470",
"2.	c #6BD761",
"3.	c #67D85C",
"4.	c #70D068",
"5.	c #69D75E",
"6.	c #5FDD52",
"7.	c #6EDA64",
"8.	c #7BD575",
"9.	c #73D56B",
"0.	c #6ADD5F",
"a.	c #70D267",
"b.	c #6AD561",
"c.	c #75D56D",
"d.	c #70D466",
"e.	c #7BD273",
"f.	c #7BD774",
"g.	c #78D670",
"h.	c #70D567",
"i.	c #73D36B",
"j.	c #70D268",
"k.	c #70D866",
"l.	c #77D86E",
"m.	c #77D76E",
"n.	c #60D954",
"o.	c #76D76E",
"p.	c #7AD372",
"q.	c #6DDA63",
"r.	c #78D271",
"s.	c #63DC55",
"t.	c #77D271",
"u.	c #69D85F",
"v.	c #71D768",
"w.	c #76D56F",
"x.	c #76D46D",
"y.	c #76D56E",
"z.	c #6BDB60",
"A.	c #72DA68",
"B.	c #6FDB65",
"C.	c #6ED664",
"D.	c #74D96B",
"E.	c #72D769",
"F.	c #5BDC4C",
"G.	c #72D669",
"H.	c #77D270",
"I.	c #6FD466",
"J.	c #6BD762",
"K.	c #65D85A",
"L.	c #71DC67",
"M.	c #75D86D",
"N.	c #65D65A",
"O.	c #6FDA66",
"P.	c #6ED964",
"Q.	c #6BD463",
"R.	c #63D857",
"S.	c #62D756",
"T.	c #6AD85F",
"U.	c #74D86C",
"V.	c #7BD474",
"W.	c #76D86E",
"X.	c #66D85B",
"Y.	c #70D867",
"Z.	c #78D371",
"`.	c #6ED666",
" +	c #66DA5B",
".+	c #72D869",
"++	c #60DF53",
"@+	c #6AD861",
"#+	c #5ED851",
"$+	c #6DD664",
"%+	c #7BD075",
"&+	c #69DB5D",
"*+	c #6CD963",
"=+	c #68DD5D",
"-+	c #64DE58",
";+	c #6CDA61",
">+	c #6ADB5F",
",+	c #6CDA62",
"'+	c #69D95F",
")+	c #68DB5C",
"!+	c #5DE14E",
"~+	c #81D67A",
"{+	c #64D959",
"]+	c #73D86B",
"^+	c #65D859",
"/+	c #64DF57",
"(+	c #68DA5E",
"_+	c #6ED566",
":+	c #75D66E",
"<+	c #72D169",
"[+	c #69D95E",
"}+	c #69DB5E",
"|+	c #61DE54",
"1+	c #74D76C",
"2+	c #69D75F",
"3+	c #63DE55",
"  . + @ # $ % & * = - ; > , ' ) ",
"! ~ { ] ^ / > ( _ : < [ } | 1 2 ",
"3 4 5 6 7 8 9 0 a b c d e f g h ",
"i j k l m n / o p q r s t u v w ",
"x y y z A B C D E F G H I J K L ",
"M N 5 u ( O P Q R S T 3 U V @ W ",
"X Y Z `  ...+.@.#.8 $.%.&.*.=.-.",
";.>.,.'.N ).!.~.{.].^./.(._.:.<.",
"[.}.|.1.2.3.4.5.6.7.8.9.0.a.b.2.",
"c.d.e.f.v g.2.h.i.7.j.k.l.m.n. .",
"o.*.p.q.[.r.s.t.u.v.w.x.c.( T y.",
"z.A.[.B.C.D.E.F.Y G.H.M I.J.K.L.",
"M.N.O.u.P.Q.R.S.T.U.> V.W.X.Y.Z.",
"`. +.+++@+( #+$+%+A.&+*+=+-+;+y ",
"t >+,+'+)+!+].  ~+{+( {.]+]+u.^+",
"B /+(+_+' 7 :+<+[+}+|+1+T.,+2+3+"};
