/* XPM */
static char * rockwall16_xpm[] = {
"16 16 226 2",
"  	c #716551",
". 	c #776C57",
"+ 	c #756954",
"@ 	c #7B715A",
"# 	c #867B62",
"$ 	c #6D624E",
"% 	c #625949",
"& 	c #786D57",
"* 	c #736753",
"= 	c #796E58",
"- 	c #786B56",
"; 	c #5F5644",
"> 	c #7C705B",
", 	c #796E59",
"' 	c #736A56",
") 	c #786E57",
"! 	c #7A6D56",
"~ 	c #887A62",
"{ 	c #82755E",
"] 	c #867A61",
"^ 	c #7E7158",
"/ 	c #4D4436",
"( 	c #776B56",
"_ 	c #7C6E57",
": 	c #7E7059",
"< 	c #80745D",
"[ 	c #716650",
"} 	c #5B5140",
"| 	c #867A62",
"1 	c #726853",
"2 	c #6B614D",
"3 	c #766952",
"4 	c #71644E",
"5 	c #7A6C55",
"6 	c #72644E",
"7 	c #504536",
"8 	c #796C57",
"9 	c #7D7159",
"0 	c #756853",
"a 	c #84765E",
"b 	c #6E624D",
"c 	c #625847",
"d 	c #786B54",
"e 	c #6B604C",
"f 	c #746853",
"g 	c #7B6F58",
"h 	c #70644F",
"i 	c #70634E",
"j 	c #6B5E49",
"k 	c #71634B",
"l 	c #70644E",
"m 	c #423A2F",
"n 	c #6A5F4A",
"o 	c #70654F",
"p 	c #736751",
"q 	c #7D7058",
"r 	c #5F5444",
"s 	c #6C5F4B",
"t 	c #766852",
"u 	c #776A54",
"v 	c #655946",
"w 	c #625743",
"x 	c #5C513E",
"y 	c #5B513F",
"z 	c #5D5340",
"A 	c #514739",
"B 	c #685C48",
"C 	c #655A47",
"D 	c #645945",
"E 	c #5C503F",
"F 	c #5E5341",
"G 	c #6B604D",
"H 	c #5C513F",
"I 	c #5C4E3D",
"J 	c #5D4F3E",
"K 	c #554A3A",
"L 	c #736854",
"M 	c #685F4D",
"N 	c #685F4E",
"O 	c #776D5A",
"P 	c #746C58",
"Q 	c #78705C",
"R 	c #696150",
"S 	c #766B57",
"T 	c #7D735C",
"U 	c #746955",
"V 	c #716754",
"W 	c #807560",
"X 	c #6F6754",
"Y 	c #746B56",
"Z 	c #6E6450",
"` 	c #716753",
" .	c #706551",
"..	c #625846",
"+.	c #746855",
"@.	c #928367",
"#.	c #877960",
"$.	c #80735C",
"%.	c #7A6E58",
"&.	c #746A55",
"*.	c #6D6350",
"=.	c #81765E",
"-.	c #7A705A",
";.	c #776D59",
">.	c #837861",
",.	c #7E725D",
"'.	c #7B6F59",
").	c #7F745D",
"!.	c #655B4A",
"~.	c #7F725C",
"{.	c #A09373",
"].	c #958569",
"^.	c #8A7C61",
"/.	c #887961",
"(.	c #625848",
"_.	c #82765F",
":.	c #897D65",
"<.	c #554C3D",
"[.	c #786D58",
"}.	c #6F604D",
"|.	c #746854",
"1.	c #63594A",
"2.	c #7B7059",
"3.	c #71644F",
"4.	c #7D7059",
"5.	c #928569",
"6.	c #9A8B6E",
"7.	c #928369",
"8.	c #7E7058",
"9.	c #6D624F",
"0.	c #7F745C",
"a.	c #7F725D",
"b.	c #7A6F58",
"c.	c #564E40",
"d.	c #837760",
"e.	c #7F745E",
"f.	c #706552",
"g.	c #756A54",
"h.	c #776952",
"i.	c #6E604C",
"j.	c #8A7E65",
"k.	c #95886B",
"l.	c #867B61",
"m.	c #736651",
"n.	c #706550",
"o.	c #6F634E",
"p.	c #5E5442",
"q.	c #544A3B",
"r.	c #4F483B",
"s.	c #6F644E",
"t.	c #766A54",
"u.	c #726954",
"v.	c #685D4C",
"w.	c #756B58",
"x.	c #6C6350",
"y.	c #6C634F",
"z.	c #5F5646",
"A.	c #706653",
"B.	c #69614F",
"C.	c #5E5648",
"D.	c #706857",
"E.	c #655F4D",
"F.	c #6D6654",
"G.	c #84775F",
"H.	c #827560",
"I.	c #635A49",
"J.	c #6C614D",
"K.	c #6F6550",
"L.	c #8D7F67",
"M.	c #7D6E55",
"N.	c #695F4C",
"O.	c #766A55",
"P.	c #7A6F59",
"Q.	c #534A3D",
"R.	c #8A7C64",
"S.	c #857961",
"T.	c #665B49",
"U.	c #867861",
"V.	c #6C614C",
"W.	c #4D4537",
"X.	c #6D624D",
"Y.	c #8D7F66",
"Z.	c #746852",
"`.	c #6C624D",
" +	c #534B3C",
".+	c #93836A",
"++	c #7D6E57",
"@+	c #6D614B",
"#+	c #5D5241",
"$+	c #585140",
"%+	c #81725B",
"&+	c #746751",
"*+	c #695C49",
"=+	c #796D55",
"-+	c #554C3C",
";+	c #877860",
">+	c #82735B",
",+	c #72654F",
"'+	c #5C5140",
")+	c #665945",
"!+	c #635946",
"~+	c #645A47",
"{+	c #776953",
"]+	c #7F6F58",
"^+	c #86755A",
"/+	c #7B6B55",
"(+	c #7C7058",
"_+	c #7E7159",
":+	c #80745B",
"<+	c #5B5141",
"[+	c #796A54",
"}+	c #605542",
"|+	c #584E3E",
"1+	c #5C5242",
"2+	c #524536",
"3+	c #605644",
"4+	c #655D49",
"5+	c #4A4133",
"6+	c #645947",
"7+	c #625543",
"8+	c #70624E",
"9+	c #72644F",
"0+	c #6D604C",
"a+	c #645745",
"b+	c #5D5343",
"c+	c #635745",
"  . + @ # $ % & * = - ; > , ' ) ",
"! ~ { ] ^ / ( _ : < [ } | 1 2 3 ",
"4 3 5 3 6 7 8 9 0 a b c d e f g ",
"h i j k l m n o p q g r s t u h ",
"v w x y z A B C D E F G H I J K ",
"L M N O P Q R S T U V W X Y Z ` ",
" ...+.| @.#.$.%.&.*.=.-.;.>.,.'.",
").!.~.{.].^./.(._.= :.<.[.}.|.1.",
"2.3.4.5.6.7.8.9.0.a.b.c.d.e. .f.",
"g.h.i.j.k.l.m.n.o.p.q.r.! s.g t.",
"u.*.v.w.x.y.z.A.M B.C.D.E.F.R A.",
"G.M H.( I.J.K.L.t M.( N.O.P.Q.R.",
"S.T.U.V.W.X.& Y.~.> G g.Z.`. +.+",
"++v @+#+$+V g.%+4.&+*+9 =+P.-+;+",
">+,+'+)+!+X.~+{+]+^+/+(+_+:+<+[+",
"}+|+1+2+3+4+5+6+7+8+9+v 0+a+b+c+"};
