/* XPM */
static char * yellow_xpm[] = {
"16 16 210 2",
"  	c #D0CB79",
". 	c #C9C475",
"+ 	c #C8C57C",
"@ 	c #CAC683",
"# 	c #D4CF76",
"$ 	c #C5C17A",
"% 	c #CAC67A",
"& 	c #C8C484",
"* 	c #D0CB75",
"= 	c #CCC76C",
"- 	c #CCC76E",
"; 	c #CDC975",
"> 	c #CCC878",
", 	c #CFCA71",
"' 	c #DDD769",
") 	c #D4CF73",
"! 	c #D1CD83",
"~ 	c #CCC880",
"{ 	c #C8C487",
"] 	c #CCC76F",
"^ 	c #CAC678",
"/ 	c #D0CB72",
"( 	c #CDC976",
"_ 	c #CCC774",
": 	c #CAC575",
"< 	c #D0CB6D",
"[ 	c #C8C474",
"} 	c #CFCB76",
"| 	c #C7C47F",
"1 	c #CAC57A",
"2 	c #BFBB81",
"3 	c #CDC978",
"4 	c #C9C47D",
"5 	c #CBC677",
"6 	c #D5D07A",
"7 	c #CCC877",
"8 	c #C8C47B",
"9 	c #D0CB7A",
"0 	c #CEC974",
"a 	c #C8C479",
"b 	c #CEC971",
"c 	c #C7C376",
"d 	c #D4CE6A",
"e 	c #C8C486",
"f 	c #CCC886",
"g 	c #CDC980",
"h 	c #C2BF83",
"i 	c #C2BE83",
"j 	c #CCC778",
"k 	c #C6C388",
"l 	c #D6D178",
"m 	c #CBC784",
"n 	c #CAC577",
"o 	c #B5B288",
"p 	c #C9C57E",
"q 	c #C8C374",
"r 	c #CDC97F",
"s 	c #D3CE6E",
"t 	c #D4CF72",
"u 	c #CAC67D",
"v 	c #C5C188",
"w 	c #D5CF75",
"x 	c #C6C380",
"y 	c #C9C473",
"z 	c #CEC973",
"A 	c #C3C082",
"B 	c #D8D26F",
"C 	c #D2CD70",
"D 	c #CEC970",
"E 	c #CFCA72",
"F 	c #CFCA75",
"G 	c #D0CB7F",
"H 	c #C6C37B",
"I 	c #CCC984",
"J 	c #CAC67F",
"K 	c #D1CD77",
"L 	c #C9C57A",
"M 	c #CFCA77",
"N 	c #D0CB73",
"O 	c #C7C277",
"P 	c #CFCA74",
"Q 	c #CDC87C",
"R 	c #D1CC6C",
"S 	c #D6D06D",
"T 	c #CDC876",
"U 	c #CAC679",
"V 	c #CAC681",
"W 	c #BBB883",
"X 	c #D4CF7B",
"Y 	c #CCC87A",
"Z 	c #CBC673",
"` 	c #CEC96E",
" .	c #BFBC84",
"..	c #C4C18A",
"+.	c #CDC974",
"@.	c #D3CE74",
"#.	c #D0CB71",
"$.	c #C7C37D",
"%.	c #C5C17C",
"&.	c #C5C17E",
"*.	c #CDCA84",
"=.	c #D5D073",
"-.	c #C0BD88",
";.	c #C7C47D",
">.	c #C8C585",
",.	c #C6C27E",
"'.	c #C5C075",
").	c #D9D366",
"!.	c #CFCA73",
"~.	c #C2BE7B",
"{.	c #D5D072",
"].	c #BDBA85",
"^.	c #D1CC73",
"/.	c #C8C375",
"(.	c #C4C07B",
"_.	c #B9B787",
":.	c #D1CD7C",
"<.	c #D0CC80",
"[.	c #C9C583",
"}.	c #C8C481",
"|.	c #CCC776",
"1.	c #C1BE7D",
"2.	c #BEBA80",
"3.	c #C5C278",
"4.	c #C6C279",
"5.	c #CCC87B",
"6.	c #C8C586",
"7.	c #C8C47E",
"8.	c #DAD46F",
"9.	c #C4C07C",
"0.	c #C0BD7D",
"a.	c #CBC678",
"b.	c #C6C281",
"c.	c #C5C184",
"d.	c #D3CE7E",
"e.	c #C5C27E",
"f.	c #CECA78",
"g.	c #C3C07D",
"h.	c #D2CD76",
"i.	c #D1CC7D",
"j.	c #C3C087",
"k.	c #D0CB6B",
"l.	c #CAC77C",
"m.	c #CBC780",
"n.	c #C8C485",
"o.	c #D2CE7A",
"p.	c #D0CB77",
"q.	c #BEBC87",
"r.	c #C6C27A",
"s.	c #C0BD84",
"t.	c #C6C383",
"u.	c #C5C281",
"v.	c #C6C382",
"w.	c #D0CA73",
"x.	c #D3CD73",
"y.	c #D2CD7A",
"z.	c #CAC782",
"A.	c #D1CD79",
"B.	c #D3CF79",
"C.	c #CCC87C",
"D.	c #BAB77D",
"E.	c #CEC975",
"F.	c #C2BE81",
"G.	c #C4C182",
"H.	c #C7C379",
"I.	c #D0CB6F",
"J.	c #CCC87F",
"K.	c #CECA7A",
"L.	c #C1BE79",
"M.	c #BDB97A",
"N.	c #CDC97D",
"O.	c #C5C27C",
"P.	c #CECA7F",
"Q.	c #D2CD7B",
"R.	c #CCC773",
"S.	c #CDC87D",
"T.	c #D1CD73",
"U.	c #C4C084",
"V.	c #C4C073",
"W.	c #C1BE7E",
"X.	c #BDBB8A",
"Y.	c #CDC97E",
"Z.	c #CCC777",
"`.	c #D3CE72",
" +	c #DCD66A",
".+	c #D3CE71",
"++	c #C7C37F",
"@+	c #CAC676",
"#+	c #D3CE73",
"$+	c #E0DA60",
"%+	c #C1BD7B",
"&+	c #D4CF75",
"*+	c #D0CC86",
"=+	c #CBC674",
"-+	c #C9C579",
";+	c #D9D373",
">+	c #CECA7D",
",+	c #C2BF7B",
"'+	c #D2CC70",
")+	c #D4CF71",
"!+	c #D3CE70",
"~+	c #C7C47B",
"{+	c #C7C27A",
"]+	c #C3C085",
"^+	c #C1BE7F",
"/+	c #D2CD6F",
"(+	c #C9C581",
"_+	c #CDC875",
":+	c #CAC67C",
"<+	c #D9D369",
"  . + @ # $ % & * = -   ; > , ' ",
") ! ~ { ] ^ / ( _ : < [ } | 1 2 ",
"3 4 5 6 7 8 9 0 a b c d e f g h ",
"i j k l m n / o p $ q r s t u v ",
"g w x y s z A B [ C D E F G H I ",
"J K L M N O P Q R S T U V W X Y ",
"Z / ` X  ...+.@.#.$.%.&.@ m *.E ",
"=.-.;.>.Q ,.'.).!.~.{.].^./.(._.",
":.<.[.}.|.1.2.3.4.5.6.7.8.9.0.a.",
"b.^ c.d.7.[.N * e.f.g.h.i.j.k.l.",
"m.n.o.p.i.}.a q.r.s.t.u.v.P w.}.",
"x.y.z.A.U B.C.D.E.F.C.G.9.H.I.J.",
"y.y K.%.{.r.L.M.%.N.O.P.Q.R.h.S.",
"T.a U.T 7 j V.W.X.Y.Z.`. +.+j ++",
"@+t #+0 |.$+%+&+*+=+-+(.;+>+H.,+",
"'+)+!+~+b {+]+^+a.3 /+(+_+:+!.<+"};
