/* XPM */
static char * blue_xpm[] = {
"16 16 200 2",
"  	c #6B6EB6",
". 	c #5C5FB4",
"+ 	c #7275B0",
"@ 	c #7577B6",
"# 	c #6D70B5",
"$ 	c #6163B4",
"% 	c #7073B1",
"& 	c #787AB4",
"* 	c #6A6DB4",
"= 	c #575AB2",
"- 	c #5E61B0",
"; 	c #696CB7",
"> 	c #6567B4",
", 	c #6467B5",
"' 	c #6062B3",
") 	c #6466B6",
"! 	c #6C6EB4",
"~ 	c #7A7DB7",
"{ 	c #777AB3",
"] 	c #7C7FB3",
"^ 	c #585BB3",
"/ 	c #6062B6",
"( 	c #6568B3",
"_ 	c #686AB3",
": 	c #676AB1",
"< 	c #6365B3",
"[ 	c #6164B2",
"} 	c #5B5EB3",
"| 	c #6F72B1",
"1 	c #7073B3",
"2 	c #676AB4",
"3 	c #686AB2",
"4 	c #6B6DB3",
"5 	c #7173B2",
"6 	c #6669B4",
"7 	c #7678B6",
"8 	c #6366B5",
"9 	c #6E70B1",
"0 	c #7173B3",
"a 	c #6769B2",
"b 	c #6A6DB1",
"c 	c #5E60B4",
"d 	c #5558B4",
"e 	c #5E61B3",
"f 	c #7C7FB2",
"g 	c #7A7CB7",
"h 	c #787BB3",
"i 	c #6A6CB5",
"j 	c #7577B0",
"k 	c #6C6FB3",
"l 	c #7C7EB5",
"m 	c #6E71B7",
"n 	c #7B7DB4",
"o 	c #6366B3",
"p 	c #5F62B6",
"q 	c #6D6FB1",
"r 	c #7072B4",
"s 	c #6B6DB0",
"t 	c #5D60B3",
"u 	c #5F62B5",
"v 	c #6668B6",
"w 	c #7072B3",
"x 	c #7A7CB5",
"y 	c #7578B5",
"z 	c #6C6EB5",
"A 	c #5F62B2",
"B 	c #6063B5",
"C 	c #7476B1",
"D 	c #676AB5",
"E 	c #5D5FB3",
"F 	c #5C5EB6",
"G 	c #5E60B3",
"H 	c #5F61B5",
"I 	c #6C6EB2",
"J 	c #7779B5",
"K 	c #696CB3",
"L 	c #787BB7",
"M 	c #7174B4",
"N 	c #6D70B4",
"O 	c #6668B4",
"P 	c #676AB3",
"Q 	c #6366B2",
"R 	c #6466B4",
"S 	c #6C6FB6",
"T 	c #595CB4",
"U 	c #5D60B7",
"V 	c #6A6DB2",
"W 	c #787AB2",
"X 	c #7476AD",
"Y 	c #7477B6",
"Z 	c #6B6DB4",
"` 	c #585BB6",
" .	c #6062B1",
"..	c #7476B6",
"+.	c #6E70B3",
"@.	c #7C7EB6",
"#.	c #696CB2",
"$.	c #686AB6",
"%.	c #6E70B2",
"&.	c #696BB2",
"*.	c #6B6EB3",
"=.	c #777AB5",
"-.	c #7C7EB3",
";.	c #7A7DB6",
">.	c #5D60B6",
",.	c #696CB6",
"'.	c #797BB2",
").	c #7375B1",
"!.	c #7A7CB4",
"~.	c #5F62B1",
"{.	c #5659B6",
"].	c #6467B3",
"^.	c #686AB0",
"/.	c #696BB4",
"(.	c #7678B0",
"_.	c #6568B5",
":.	c #6769B0",
"<.	c #6B6DB1",
"[.	c #6F71B2",
"}.	c #7275B6",
"|.	c #7C7FB4",
"1.	c #7D7FB1",
"2.	c #7678B2",
"3.	c #686BB2",
"4.	c #6466B2",
"5.	c #6D6FAF",
"6.	c #6568B1",
"7.	c #5C5EB4",
"8.	c #6B6DB5",
"9.	c #797CB5",
"0.	c #676AB6",
"a.	c #6D6FB0",
"b.	c #7376B3",
"c.	c #6D70B0",
"d.	c #797BB6",
"e.	c #6F72B2",
"f.	c #7677B4",
"g.	c #6D70B2",
"h.	c #6E70B0",
"i.	c #7576B5",
"j.	c #5C5EB2",
"k.	c #7477B4",
"l.	c #787AB3",
"m.	c #7274B6",
"n.	c #5F61B4",
"o.	c #7578B2",
"p.	c #6668B2",
"q.	c #6E71B4",
"r.	c #7476B2",
"s.	c #7375B3",
"t.	c #686BB3",
"u.	c #6A6CB1",
"v.	c #7477B3",
"w.	c #686BB5",
"x.	c #6F71B6",
"y.	c #7376B6",
"z.	c #6B6DB2",
"A.	c #7174B5",
"B.	c #6F72B3",
"C.	c #5659B3",
"D.	c #6467B4",
"E.	c #7578B1",
"F.	c #6265B2",
"G.	c #7375B5",
"H.	c #6164B0",
"I.	c #6669B2",
"J.	c #686BB1",
"K.	c #676AB2",
"L.	c #7275B4",
"M.	c #6568B4",
"N.	c #797BB4",
"O.	c #6C6FB2",
"P.	c #6366B4",
"Q.	c #7072B5",
"R.	c #5C5FB6",
"S.	c #5B5EB0",
"T.	c #797BB1",
"U.	c #6F72B6",
"V.	c #696CB4",
"W.	c #6567B6",
"X.	c #6164B6",
"Y.	c #6C6FB5",
"Z.	c #6769B5",
"`.	c #686AB5",
" +	c #6669B3",
".+	c #595CB7",
"++	c #6B6DB6",
"@+	c #7F82B7",
"#+	c #6163B2",
"$+	c #7173B5",
"%+	c #6164B1",
"&+	c #6164B7",
"*+	c #6B6FB2",
"=+	c #5F62B4",
"-+	c #6265B5",
";+	c #7375B4",
">+	c #6F71B0",
",+	c #6668B5",
"'+	c #5D60B5",
")+	c #6769B3",
"  . + @ # $ % & * = - ; > , ' ) ",
"! ~ { ] ^ / ( _ : < [ } | 1 2 3 ",
"4 5 6 7 8 9 0 a b c d e f g h i ",
"j k l m n o p q r s t { u v w x ",
"y z z A B a C D E F G H I J K L ",
"M N O v P Q R S T U V V W X Y Z ",
"` o  ...+.@.#.$.< %.&.*.=.-.;.>.",
",.'.).!.# Z ~.{.].^./.(._.:.<.[.",
"}.|.1.2.3.4.5.6.7.8.9.0 0.a.: _ ",
"b.c.'.d.e.f.3 g.% 8.h.N Y i.j.g.",
"k.-.l.8.m.2.n.o.p.q.k.r.s.t.u.v.",
"w.x.y.S z.A.B.C.D.[.E.M c.P F.m ",
"G.H.S I.! J.~.- K.L.M.N.y.Q N 2.",
"O.P.Q.R._ _ S.z.T.U.O V.W.X.V.Y.",
"u Z.`. +D..+^.++@+#+_ ].$+$+I.%+",
"K.&+M.*+=+-+;+>+ +,+'+M )+V.( H "};
