/* XPM */
static char * gray_xpm[] = {
"16 16 76 1",
" 	c #A2A4A2",
".	c #9B9D9C",
"+	c #9EA09E",
"@	c #A3A5A3",
"#	c #9B9E9C",
"$	c #9EA19F",
"%	c #A2A4A3",
"&	c #9FA19E",
"*	c #999C9A",
"=	c #9FA1A0",
"-	c #9EA09F",
";	c #A1A4A2",
">	c #A6A9A7",
",	c #A3A6A3",
"'	c #A4A6A4",
")	c #9B9D9B",
"!	c #9D9F9E",
"~	c #9C9E9C",
"{	c #A1A3A1",
"]	c #A0A2A0",
"^	c #9C9E9D",
"/	c #9FA19F",
"(	c #A0A29F",
"_	c #9DA09E",
":	c #A5A7A5",
"<	c #9FA09E",
"[	c #A1A3A3",
"}	c #A3A5A4",
"|	c #A5A8A6",
"1	c #A3A6A4",
"2	c #9EA09D",
"3	c #9B9C9A",
"4	c #9A9C9B",
"5	c #A2A5A3",
"6	c #9FA2A0",
"7	c #9D9E9D",
"8	c #A5A8A5",
"9	c #9C9F9D",
"0	c #A4A7A5",
"a	c #A1A3A0",
"b	c #A0A19F",
"c	c #A1A3A2",
"d	c #9EA19E",
"e	c #9C9E9B",
"f	c #A0A2A1",
"g	c #9DA09F",
"h	c #9E9F9E",
"i	c #9FA09F",
"j	c #9C9D9D",
"k	c #A5A6A4",
"l	c #9D9F9D",
"m	c #9A9C9A",
"n	c #9D9F9C",
"o	c #9C9D9C",
"p	c #9A9B9B",
"q	c #9B9E9B",
"r	c #A3A6A5",
"s	c #A0A3A0",
"t	c #A3A4A2",
"u	c #9DA09D",
"v	c #A2A3A1",
"w	c #A2A3A2",
"x	c #A1A4A1",
"y	c #A1A2A0",
"z	c #A0A3A1",
"A	c #A3A5A2",
"B	c #A4A7A4",
"C	c #A4A6A5",
"D	c #989A98",
"E	c #9EA1A0",
"F	c #9FA29F",
"G	c #979997",
"H	c #A2A5A2",
"I	c #989B98",
"J	c #A7A9A7",
"K	c #9A9D9A",
" .+@ #$%&*.%=-+%",
";>,')+$+!~!.{]-^",
"/(_:-<[+^^._}|}-",
"-/,1'2=3].41/{] ",
"5%6)/+-{.!7+6890",
"a5-b]~-c!]-d e8f",
"^g.:h}!c(ij+@k:l",
" ]$%{$m$-4@2])n^",
"'|} +opql]rsth^/",
"suv:=w/6$x_{'y~z",
"5AB{Cc!69d;z{//x",
" @%%/'sDE+;F9ll ",
"@#;_c.4GdHl'1l5 ",
"/~f_//In]@&z@s&]",
"~{{$${){J^-~'}~K",
"]]f_l!f~///z==_]"};
