/* XPM */
static char * red_xpm[] = {
"16 16 223 2",
"  	c #E27268",
". 	c #E76154",
"+ 	c #D9776E",
"@ 	c #E1786F",
"# 	c #E27168",
"$ 	c #E66458",
"% 	c #DA766D",
"& 	c #DB7C75",
"* 	c #E26E63",
"= 	c #E65A4C",
"- 	c #E06358",
"; 	c #E66E64",
"> 	c #E36A5F",
", 	c #E5695D",
"' 	c #E4655A",
") 	c #E8665B",
"! 	c #E17066",
"~ 	c #E07E76",
"{ 	c #DB7C74",
"] 	c #D7827C",
"^ 	c #E75E4F",
"/ 	c #E96357",
"( 	c #E26B60",
"_ 	c #DF6B61",
": 	c #E3665B",
"< 	c #E1655A",
"[ 	c #E66054",
"} 	c #DC736A",
"| 	c #DE756C",
"1 	c #E26C63",
"2 	c #E06B62",
"3 	c #E06F66",
"4 	c #DC766D",
"5 	c #E36C61",
"6 	c #DF7A72",
"7 	c #E5685C",
"8 	c #DD7269",
"9 	c #DD756D",
"0 	c #E16B61",
"a 	c #DD6E65",
"b 	c #E66358",
"c 	c #E95A4B",
"d 	c #E46255",
"e 	c #D78079",
"f 	c #E07D75",
"g 	c #DA7E77",
"h 	c #E46D63",
"i 	c #D77871",
"j 	c #E16E64",
"k 	c #DB8079",
"l 	c #E57268",
"m 	c #DB7F77",
"n 	c #E3695E",
"o 	c #E86458",
"p 	c #DC7067",
"q 	c #E1726A",
"r 	c #DC6E65",
"s 	c #E66155",
"t 	c #E66459",
"u 	c #E6695E",
"v 	c #DE736B",
"w 	c #DC7D76",
"x 	c #DF7971",
"y 	c #E37167",
"z 	c #E37066",
"A 	c #E36357",
"B 	c #E76457",
"C 	c #E06B61",
"D 	c #DA766F",
"E 	c #E56C61",
"F 	c #E66053",
"G 	c #EA5F52",
"H 	c #E56356",
"I 	c #E76357",
"J 	c #DF6F66",
"K 	c #DC7C74",
"L 	c #E06C62",
"M 	c #DF7D75",
"N 	c #E0746B",
"O 	c #E07369",
"P 	c #E4695E",
"Q 	c #E1685D",
"R 	c #E4685D",
"S 	c #E47167",
"T 	c #E85E50",
"U 	c #EA6255",
"V 	c #DE6F65",
"W 	c #E06D63",
"X 	c #DA7C74",
"Y 	c #D27A72",
"Z 	c #E07970",
"` 	c #E26E65",
" .	c #EA5D4F",
"..	c #E4665B",
"+.	c #E26358",
"@.	c #E17870",
"#.	c #DF7269",
"$.	c #DC7F78",
"%.	c #E56C62",
"&.	c #E4685C",
"*.	c #DE6C64",
"=.	c #E07066",
"-.	c #DE7B72",
";.	c #D98079",
">.	c #DD7E76",
",.	c #E96154",
"'.	c #E46E64",
").	c #D97D76",
"!.	c #D87870",
"~.	c #DA7D77",
"{.	c #E17269",
"].	c #E16E65",
"^.	c #E06459",
"/.	c #EB5B4B",
"(.	c #DD6C63",
"_.	c #E26E64",
":.	c #D87971",
"<.	c #E56B5F",
"[.	c #DD6A61",
"}.	c #DE7169",
"|.	c #E1776E",
"1.	c #D98179",
"2.	c #D4827C",
"3.	c #DA7B73",
"4.	c #DF6D64",
"5.	c #E2675C",
"6.	c #D97069",
"7.	c #DF6A60",
"8.	c #E76052",
"9.	c #E36F65",
"0.	c #DC7E76",
"a.	c #DD766E",
"b.	c #E66C61",
"c.	c #DB7268",
"d.	c #DE6C63",
"e.	c #DF6F65",
"f.	c #DC786F",
"g.	c #DC7167",
"h.	c #D87E76",
"i.	c #DE7D75",
"j.	c #DD746B",
"k.	c #DE7870",
"l.	c #DE7168",
"m.	c #DB746C",
"n.	c #E27066",
"o.	c #DA7269",
"p.	c #E07268",
"q.	c #E0786F",
"r.	c #E0776E",
"s.	c #E46054",
"t.	c #DE7268",
"u.	c #DD7971",
"v.	c #DA7F78",
"w.	c #DA7D75",
"x.	c #E36F64",
"y.	c #E2756D",
"z.	c #D97B74",
"A.	c #E76256",
"B.	c #D87C75",
"C.	c #E1695F",
"D.	c #E07269",
"E.	c #DB786F",
"F.	c #DC776F",
"G.	c #E26C61",
"H.	c #DE6E65",
"I.	c #DC7A71",
"J.	c #E37369",
"K.	c #E1766D",
"L.	c #E47066",
"M.	c #DF7066",
"N.	c #DF7369",
"O.	c #E75A4C",
"P.	c #E3685D",
"Q.	c #DE736A",
"R.	c #D87A72",
"S.	c #DE776E",
"T.	c #E2665B",
"U.	c #E57168",
"V.	c #E0665B",
"W.	c #DE6B62",
"X.	c #E16458",
"Y.	c #E16256",
"Z.	c #E06E64",
"`.	c #DF786F",
" +	c #E4675C",
".+	c #E0776F",
"++	c #E1695E",
"@+	c #DE7167",
"#+	c #E5665A",
"$+	c #E0756D",
"%+	c #EA6052",
"&+	c #E16C62",
"*+	c #E26D62",
"=+	c #E25F52",
"-+	c #DE6F66",
";+	c #D77D76",
">+	c #E2756B",
",+	c #E46C61",
"'+	c #E26D63",
")+	c #E66A5F",
"!+	c #E7675A",
"~+	c #E86255",
"{+	c #E46D62",
"]+	c #EC5D4F",
"^+	c #DD6C62",
"/+	c #E56E64",
"(+	c #DD837B",
"_+	c #E36459",
":+	c #E16D63",
"<+	c #E3675C",
"[+	c #E1746B",
"}+	c #E26559",
"|+	c #DF6E64",
"1+	c #E96558",
"2+	c #E46458",
"3+	c #DE776F",
"4+	c #D9736A",
"5+	c #E46B5F",
"6+	c #E86355",
"7+	c #DF776E",
"8+	c #E36D63",
"9+	c #E2695F",
"0+	c #E86457",
"  . + @ # $ % & * = - ; > , ' ) ",
"! ~ { ] ^ / > ( _ : < [ } | 1 2 ",
"3 4 5 6 7 8 9 0 a b c d e f g h ",
"i j k l m n o p q r s { t u v w ",
"x y z A B C D E F G H I J K L M ",
"N O P u j Q R S T U V W X Y Z ` ",
" ...+.@.#.$.2 %.&.} *.=.-.;.>.,.",
"'.).!.~.{.].^./.( (._.:.<.[.V }.",
"|.1.2.3.4.5.6.7.8.9.0.a.b.c.d.e.",
"f.g.h.i.j.k.4.l.m.n.o.p.q.r.s.t.",
"u.v.w.x.y.z.A.B.C.D.u.E.F.G.H.I.",
"h J.K.L.M.r.N.O.P.Q.R.S.g.2 T.U.",
"r.V.z L ! W.X.Y.Z.`. +& .+++O 3.",
"@+#+$+%+&+*+=+-+;+>+,+'+)+!+5 z ",
"~+{+,+( P ]+^+/+(+_+:+<+[+$+L }+",
"|+1+> e.2+7 3+4+&+5+6+7+&+8+9+0+"};
